<?xml version="1.0" encoding="UTF-8"?>
<svg id="Layer_1" xmlns="http://www.w3.org/2000/svg" viewBox="0 0 49 40">
  <defs>
    <style>
      .cls-1 {
        fill: #fff;
      }
    </style>
  </defs>
  <path class="cls-1" d="M37.39,40c6.43-.13,11.61-5.39,11.61-11.86,0-3.15-1.25-6.16-3.47-8.39L25.79,0v12.28c0,2.05.82,4.02,2.27,5.47l4.62,4.63h.01s7.75,7.77,7.75,7.77c.25.25.25.66,0,.91-.25.25-.66.25-.91,0l-2.67-2.67H12.14l-2.67,2.67c-.25.25-.66.25-.91,0-.25-.25-.25-.66,0-.91l7.75-7.76h.01s4.62-4.64,4.62-4.64c1.45-1.45,2.27-3.42,2.27-5.47V0L3.47,19.75c-2.22,2.22-3.47,5.24-3.47,8.39,0,6.47,5.17,11.73,11.61,11.86h25.79Z"/>
</svg>